Coordinates
version=1
nRows=5
nColumns=63
inDegrees=yes

Units are S.I. units (second, meters, Newtons, ...)
If the header above contains a line with 'inDegrees', this indicates whether rotational values are in degrees (yes) or radians (no).

endheader
time	pelvis_tilt	pelvis_list	pelvis_rotation	pelvis_tx	pelvis_ty	pelvis_tz	hip_flexion_r	hip_adduction_r	hip_rotation_r	knee_angle_r	knee_angle_r_beta	ankle_angle_r	subtalar_angle_r	mtp_angle_r	hip_flexion_l	hip_adduction_l	hip_rotation_l	knee_angle_l	knee_angle_l_beta	ankle_angle_l	subtalar_angle_l	mtp_angle_l	L5_S1_Flex_Ext	L5_S1_Lat_Bending	L5_S1_axial_rotation	L4_L5_Flex_Ext	L4_L5_Lat_Bending	L4_L5_axial_rotation	L3_L4_Flex_Ext	L3_L4_Lat_Bending	L3_L4_axial_rotation	L2_L3_Flex_Ext	L2_L3_Lat_Bending	L2_L3_axial_rotation	L1_L2_Flex_Ext	L1_L2_Lat_Bending	L1_L2_axial_rotation	L1_T12_Flex_Ext	L1_T12_Lat_Bending	L1_T12_axial_rotation	Abs_r3	Abs_r2	Abs_r1	Abs_t1	Abs_t2	neck_flexion	neck_bending	neck_rotation	arm_flex_r	arm_add_r	arm_rot_r	elbow_flex_r	pro_sup_r	wrist_flex_r	wrist_dev_r	arm_flex_l	arm_add_l	arm_rot_l	elbow_flex_l	pro_sup_l	wrist_flex_l	wrist_dev_l
      6.35000000	      2.77918966	    -18.22182852	    115.69050964	      0.17474614	      0.33959306	      0.65362117	      9.02235344	     -0.95699091	    -23.75548377	     11.26830922	      0.19666910	     24.53063467	      6.70044490	      0.00000000	     16.31238611	      3.56003505	      9.73378646	     19.32966962	      0.33736638	     24.85537625	     -7.02879898	      0.00000000	      0.00072509	      0.07466429	      1.88056277	      0.00134657	      0.09930350	      1.99809794	      0.00119125	      0.18153875	      1.99809794	      0.00082871	      0.18153875	      1.64549242	      0.00067332	      0.15225542	      1.52795725	      0.00041432	      0.11565498	      1.41042207	      0.00517926	      0.84461737	     10.45912594	      0.00000000	      0.00000000	     20.61432732	    -10.06980188	      2.46444519	      6.25670976	    -16.77863562	     40.10264921	     36.16382508	     79.46611608	     -6.03004054	      0.40159409	     23.54637930	     -1.21872127	    144.39040818	      0.33982051	      0.98423132	     -6.27888257	    -23.77827906
      6.36666667	      2.49237642	    -18.59777542	    115.36884804	      0.17430908	      0.33812212	      0.65191327	      9.08281828	     -1.26330253	    -23.05932720	     11.07444364	      0.19328550	     25.13419999	      6.72760152	      0.00000000	     14.95736278	      3.69891964	      9.22379766	     16.62289652	      0.29012428	     24.20075448	     -6.05071565	      0.00000000	      0.03184619	     -0.04792825	      1.38689227	      0.05914155	     -0.06374457	      1.47357303	      0.05232010	     -0.11653274	      1.47357303	      0.03639701	     -0.11653274	      1.21353073	      0.02957237	     -0.09773528	      1.12684997	      0.01819691	     -0.07424085	      1.04016920	      0.22747412	     -0.54217390	      7.71347871	      0.00000000	      0.00000000	     21.79684304	     -7.58626405	      2.57840310	      8.28825903	    -16.71699503	     44.75661917	     40.59309396	     86.81275767	    -11.85111777	     -0.60205423	     21.34228293	     -3.72355471	    140.28641413	      0.39852761	      1.05055942	     -6.95885342	    -23.42507739
      6.38333333	      2.19941471	    -18.73951691	    115.20883539	      0.17383855	      0.33714034	      0.65047788	      8.88728052	     -1.48513346	    -22.55422544	     10.88460072	      0.18997212	     25.66667818	      6.53423125	      0.00000000	     13.50714418	      3.74919873	      8.43833951	     14.20907602	      0.24799516	     23.36156953	     -4.68529933	      0.00000000	      0.03326962	     -0.16884519	      0.86061851	      0.06178500	     -0.22456411	      0.91440717	      0.05465865	     -0.41053020	      0.91440717	      0.03802384	     -0.41053020	      0.75304120	      0.03089416	     -0.34430912	      0.69925254	      0.01901026	     -0.26154120	      0.64546388	      0.23764154	     -1.91001058	      4.78650199	      0.00000000	      0.00000000	     22.70780998	     -5.04611727	      1.84985474	     11.20259124	    -16.97890608	     51.62190827	     45.51221106	     88.38637474	    -18.70210690	     -2.25570249	     18.95050182	     -6.15340707	    135.45823249	      0.47066237	      1.11854952	     -7.57829309	    -23.14075928
      6.40000000	      1.99129167	    -18.75958873	    115.19663895	      0.17302540	      0.33637074	      0.64936189	      8.60230324	     -1.62781932	    -22.27298340	     10.76535368	      0.18789087	     26.19965498	      6.31638399	      0.00000000	     12.16760583	      3.77268304	      7.92897350	     12.25941064	      0.21396708	     22.39762444	     -3.77726813	      0.00000000	      0.01909514	     -0.27612579	      0.36653710	      0.03546159	     -0.36724729	      0.38944567	      0.03137141	     -0.67137223	      0.38944567	      0.02182384	     -0.67137223	      0.32071996	      0.01773175	     -0.56307570	      0.29781139	      0.01091096	     -0.42771884	      0.27490283	      0.13639469	     -3.12359011	      2.03856939	      0.00000000	      0.00000000	     23.52446044	     -2.64589675	      0.43178177	     13.50267365	    -17.17732575	     55.26819160	     51.27597390	     88.90466314	    -22.31521372	     -4.05187968	     16.57307746	     -8.28489178	    130.41557501	      0.55767551	      1.19695226	     -8.01946766	    -22.96747254
      6.41666667	      1.79848528	    -18.68542899	    115.38035078	      0.17190451	      0.33599415	      0.64827224	      8.20240519	     -1.73900374	    -22.31543377	     10.65561755	      0.18597561	     26.60905454	      5.97707791	      0.00000000	     10.88031487	      3.81009072	      7.65092108	     10.62545627	      0.18544920	     21.17522870	     -3.31595839	      0.00000000	     -0.01196490	     -0.37799231	     -0.04408480	     -0.02222002	     -0.50272978	     -0.04684010	     -0.01965714	     -0.91905051	     -0.04684010	     -0.01367469	     -0.91905051	     -0.03857420	     -0.01111061	     -0.77080193	     -0.03581890	     -0.00683674	     -0.58551010	     -0.03306360	     -0.08546410	     -4.27592466	     -0.24518642	      0.00000000	      0.00000000	     24.19243455	     -0.64201368	     -1.69538906	     14.57851096	    -17.35907192	     55.29162811	     57.91524250	     89.06517421	    -22.19599617	     -5.06706393	     14.53774286	    -10.08916746	    126.91244281	      0.60925869	      1.17068076	     -8.48593344	    -22.67956833
